<svg width="1600" height="900" viewBox="0 0 1600 900" fill="none" xmlns="http://www.w3.org/2000/svg">
  <defs>
    <filter id="softShadow" x="-15%" y="-15%" width="130%" height="130%" color-interpolation-filters="sRGB">
      <feGaussianBlur stdDeviation="9" result="blur"/>
      <feColorMatrix in="blur" type="matrix"
        values="1 0 0 0 0
                0 1 0 0 0
                0 0 1 0 0
                0 0 0 0.42 0" result="shadow"/>
      <feBlend in="SourceGraphic" in2="shadow" mode="normal"/>
    </filter>

    <filter id="softLeaf" x="-20%" y="-20%" width="140%" height="140%" color-interpolation-filters="sRGB">
      <feGaussianBlur stdDeviation="14" result="blur"/>
      <feColorMatrix in="blur" type="matrix"
        values="1 0 0 0 0
                0 1 0 0 0
                0 0 1 0 0
                0 0 0 0.18 0"/>
    </filter>

    <linearGradient id="fadeLeft" x1="0" y1="0" x2="1" y2="0">
      <stop offset="0%" stop-color="white" stop-opacity="1"/>
      <stop offset="55%" stop-color="white" stop-opacity="0.78"/>
      <stop offset="100%" stop-color="white" stop-opacity="0"/>
    </linearGradient>

    <linearGradient id="fadeRight" x1="1" y1="0" x2="0" y2="0">
      <stop offset="0%" stop-color="white" stop-opacity="1"/>
      <stop offset="60%" stop-color="white" stop-opacity="0.72"/>
      <stop offset="100%" stop-color="white" stop-opacity="0"/>
    </linearGradient>

    <linearGradient id="fadeTop" x1="0" y1="0" x2="0" y2="1">
      <stop offset="0%" stop-color="white" stop-opacity="1"/>
      <stop offset="48%" stop-color="white" stop-opacity="0.65"/>
      <stop offset="100%" stop-color="white" stop-opacity="0"/>
    </linearGradient>

    <mask id="maskLeft">
      <rect width="1600" height="900" fill="url(#fadeLeft)"/>
    </mask>

    <mask id="maskRight">
      <rect width="1600" height="900" fill="url(#fadeRight)"/>
    </mask>

    <mask id="maskTop">
      <rect width="1600" height="900" fill="url(#fadeTop)"/>
    </mask>
  </defs>

  <!-- Transparent background; only the shadow overlay is drawn -->

  <!-- Left-side canopy shadow -->
  <g mask="url(#maskLeft)" filter="url(#softShadow)" stroke="#000000" stroke-linecap="round" stroke-linejoin="round">
    <path d="M-90 80 C 50 110, 160 160, 280 270 S 500 510, 650 640" stroke-width="30" opacity="0.085"/>
    <path d="M40 -30 C 120 90, 180 170, 245 285 C 300 380, 345 465, 405 555" stroke-width="16" opacity="0.095"/>
    <path d="M130 10 C 165 80, 205 145, 250 205" stroke-width="9" opacity="0.11"/>
    <path d="M235 180 C 170 165, 120 145, 60 108 C 5 74, -35 52, -78 40" stroke-width="8" opacity="0.10"/>
    <path d="M250 210 C 315 175, 380 150, 462 132" stroke-width="7" opacity="0.10"/>
    <path d="M265 245 C 225 300, 190 350, 145 445" stroke-width="8" opacity="0.105"/>
    <path d="M308 300 C 378 298, 455 320, 560 365" stroke-width="8" opacity="0.10"/>
    <path d="M312 302 C 272 365, 255 420, 232 505" stroke-width="6" opacity="0.09"/>
    <path d="M350 390 C 430 400, 520 438, 625 510" stroke-width="6" opacity="0.095"/>
    <path d="M360 390 C 335 455, 317 525, 318 615" stroke-width="5.5" opacity="0.095"/>
    <path d="M430 470 C 400 520, 385 575, 392 655" stroke-width="5" opacity="0.09"/>
    <path d="M495 555 C 565 560, 635 590, 720 645" stroke-width="5" opacity="0.08"/>
    <path d="M170 90 C 225 55, 290 35, 370 18" stroke-width="6" opacity="0.085"/>
    <path d="M205 150 C 270 132, 345 130, 435 150" stroke-width="5.5" opacity="0.09"/>
    <path d="M168 112 C 130 75, 95 35, 55 -15" stroke-width="5" opacity="0.08"/>
  </g>

  <!-- Right-side canopy shadow -->
  <g mask="url(#maskRight)" filter="url(#softShadow)" stroke="#000000" stroke-linecap="round" stroke-linejoin="round">
    <path d="M1705 110 C 1540 140, 1415 190, 1310 300 S 1110 520, 980 690" stroke-width="28" opacity="0.08"/>
    <path d="M1610 -30 C 1535 85, 1475 175, 1410 285 C 1356 375, 1315 465, 1260 570" stroke-width="15" opacity="0.088"/>
    <path d="M1468 30 C 1436 95, 1396 160, 1350 228" stroke-width="8.5" opacity="0.10"/>
    <path d="M1350 225 C 1418 198, 1480 182, 1560 174" stroke-width="7.5" opacity="0.09"/>
    <path d="M1352 230 C 1298 202, 1235 180, 1160 165" stroke-width="7" opacity="0.095"/>
    <path d="M1325 282 C 1368 338, 1404 403, 1445 500" stroke-width="7.5" opacity="0.10"/>
    <path d="M1295 340 C 1212 333, 1130 346, 1010 392" stroke-width="7" opacity="0.09"/>
    <path d="M1298 338 C 1315 406, 1320 472, 1308 557" stroke-width="6" opacity="0.09"/>
    <path d="M1228 430 C 1148 433, 1057 460, 953 518" stroke-width="5.5" opacity="0.09"/>
    <path d="M1228 430 C 1258 490, 1282 552, 1295 634" stroke-width="5.25" opacity="0.085"/>
    <path d="M1160 520 C 1185 584, 1198 635, 1196 710" stroke-width="4.75" opacity="0.08"/>
    <path d="M1470 92 C 1416 62, 1354 42, 1280 26" stroke-width="5.5" opacity="0.08"/>
    <path d="M1415 150 C 1348 136, 1276 134, 1192 147" stroke-width="5.25" opacity="0.09"/>
    <path d="M1450 100 C 1492 55, 1528 15, 1572 -38" stroke-width="4.75" opacity="0.075"/>
  </g>

  <!-- Top diffuse canopy -->
  <g mask="url(#maskTop)" filter="url(#softShadow)" stroke="#000000" stroke-linecap="round" stroke-linejoin="round">
    <path d="M260 -60 C 360 20, 470 78, 590 122 S 810 195, 980 228" stroke-width="18" opacity="0.05"/>
    <path d="M820 -40 C 768 30, 726 94, 704 164" stroke-width="8" opacity="0.055"/>
    <path d="M700 164 C 760 145, 825 145, 905 166" stroke-width="5.5" opacity="0.05"/>
    <path d="M695 166 C 648 145, 598 134, 540 133" stroke-width="5.5" opacity="0.05"/>
  </g>

  <!-- Soft leaf clusters for realism -->
  <g filter="url(#softLeaf)" fill="#000000">
    <ellipse cx="132" cy="118" rx="100" ry="44" transform="rotate(24 132 118)" opacity="0.11"/>
    <ellipse cx="262" cy="196" rx="120" ry="50" transform="rotate(18 262 196)" opacity="0.09"/>
    <ellipse cx="388" cy="320" rx="90" ry="38" transform="rotate(28 388 320)" opacity="0.07"/>
    <ellipse cx="1490" cy="132" rx="110" ry="48" transform="rotate(-20 1490 132)" opacity="0.10"/>
    <ellipse cx="1368" cy="232" rx="124" ry="52" transform="rotate(-18 1368 232)" opacity="0.085"/>
    <ellipse cx="1250" cy="362" rx="82" ry="36" transform="rotate(-24 1250 362)" opacity="0.07"/>
    <ellipse cx="822" cy="102" rx="140" ry="42" transform="rotate(4 822 102)" opacity="0.045"/>
  </g>
</svg>
